<mxfile host="Electron" agent="Mozilla/5.0 (Windows NT 10.0; Win64; x64) AppleWebKit/537.36 (KHTML, like Gecko) draw.io/26.0.16 Chrome/132.0.6834.196 Electron/34.2.0 Safari/537.36" version="26.0.16">
  <diagram name="第 1 页" id="iV8BweZCX2aBzSEkEYhk">
    <mxGraphModel dx="538" dy="326" grid="1" gridSize="10" guides="1" tooltips="1" connect="1" arrows="1" fold="1" page="1" pageScale="1" pageWidth="827" pageHeight="1169" math="0" shadow="0">
      <root>
        <mxCell id="0" />
        <mxCell id="1" parent="0" />
        <mxCell id="Y-FW6RMtg8AMJjoA9081-1" value="" style="rounded=0;whiteSpace=wrap;html=1;" vertex="1" parent="1">
          <mxGeometry x="160" y="120" width="80" height="130" as="geometry" />
        </mxCell>
        <mxCell id="Y-FW6RMtg8AMJjoA9081-2" value="" style="rounded=0;whiteSpace=wrap;html=1;" vertex="1" parent="1">
          <mxGeometry x="340" y="120" width="80" height="130" as="geometry" />
        </mxCell>
        <mxCell id="Y-FW6RMtg8AMJjoA9081-3" value="" style="rounded=0;whiteSpace=wrap;html=1;" vertex="1" parent="1">
          <mxGeometry x="230" y="130" width="20" height="20" as="geometry" />
        </mxCell>
        <mxCell id="Y-FW6RMtg8AMJjoA9081-14" style="edgeStyle=orthogonalEdgeStyle;rounded=0;orthogonalLoop=1;jettySize=auto;html=1;exitX=0;exitY=0.5;exitDx=0;exitDy=0;entryX=1;entryY=0.5;entryDx=0;entryDy=0;" edge="1" parent="1" source="Y-FW6RMtg8AMJjoA9081-4" target="Y-FW6RMtg8AMJjoA9081-3">
          <mxGeometry relative="1" as="geometry" />
        </mxCell>
        <mxCell id="Y-FW6RMtg8AMJjoA9081-4" value="" style="rounded=0;whiteSpace=wrap;html=1;" vertex="1" parent="1">
          <mxGeometry x="330" y="130" width="20" height="20" as="geometry" />
        </mxCell>
        <mxCell id="Y-FW6RMtg8AMJjoA9081-18" style="edgeStyle=orthogonalEdgeStyle;rounded=0;orthogonalLoop=1;jettySize=auto;html=1;exitX=1;exitY=0.5;exitDx=0;exitDy=0;entryX=0;entryY=0.5;entryDx=0;entryDy=0;" edge="1" parent="1" source="Y-FW6RMtg8AMJjoA9081-5" target="Y-FW6RMtg8AMJjoA9081-6">
          <mxGeometry relative="1" as="geometry" />
        </mxCell>
        <mxCell id="Y-FW6RMtg8AMJjoA9081-5" value="" style="rounded=0;whiteSpace=wrap;html=1;" vertex="1" parent="1">
          <mxGeometry x="230" y="160" width="20" height="20" as="geometry" />
        </mxCell>
        <mxCell id="Y-FW6RMtg8AMJjoA9081-6" value="" style="rounded=0;whiteSpace=wrap;html=1;" vertex="1" parent="1">
          <mxGeometry x="330" y="160" width="20" height="20" as="geometry" />
        </mxCell>
        <mxCell id="Y-FW6RMtg8AMJjoA9081-22" style="edgeStyle=orthogonalEdgeStyle;rounded=0;orthogonalLoop=1;jettySize=auto;html=1;exitX=1;exitY=0.5;exitDx=0;exitDy=0;entryX=0;entryY=0.5;entryDx=0;entryDy=0;" edge="1" parent="1" source="Y-FW6RMtg8AMJjoA9081-7" target="Y-FW6RMtg8AMJjoA9081-9">
          <mxGeometry relative="1" as="geometry" />
        </mxCell>
        <mxCell id="Y-FW6RMtg8AMJjoA9081-7" value="" style="rounded=0;whiteSpace=wrap;html=1;" vertex="1" parent="1">
          <mxGeometry x="230" y="190" width="20" height="20" as="geometry" />
        </mxCell>
        <mxCell id="Y-FW6RMtg8AMJjoA9081-8" value="" style="rounded=0;whiteSpace=wrap;html=1;" vertex="1" parent="1">
          <mxGeometry x="230" y="220" width="20" height="20" as="geometry" />
        </mxCell>
        <mxCell id="Y-FW6RMtg8AMJjoA9081-9" value="" style="rounded=0;whiteSpace=wrap;html=1;" vertex="1" parent="1">
          <mxGeometry x="330" y="190" width="20" height="20" as="geometry" />
        </mxCell>
        <mxCell id="Y-FW6RMtg8AMJjoA9081-24" style="edgeStyle=orthogonalEdgeStyle;rounded=0;orthogonalLoop=1;jettySize=auto;html=1;exitX=0;exitY=0.5;exitDx=0;exitDy=0;entryX=1;entryY=0.5;entryDx=0;entryDy=0;" edge="1" parent="1" source="Y-FW6RMtg8AMJjoA9081-11" target="Y-FW6RMtg8AMJjoA9081-8">
          <mxGeometry relative="1" as="geometry" />
        </mxCell>
        <mxCell id="Y-FW6RMtg8AMJjoA9081-11" value="" style="rounded=0;whiteSpace=wrap;html=1;" vertex="1" parent="1">
          <mxGeometry x="330" y="220" width="20" height="20" as="geometry" />
        </mxCell>
        <mxCell id="Y-FW6RMtg8AMJjoA9081-12" value="节点&lt;b&gt; i&lt;/b&gt;" style="text;html=1;align=center;verticalAlign=middle;whiteSpace=wrap;rounded=0;" vertex="1" parent="1">
          <mxGeometry x="170" y="90" width="60" height="30" as="geometry" />
        </mxCell>
        <mxCell id="Y-FW6RMtg8AMJjoA9081-13" value="节点&lt;b&gt;&amp;nbsp;j&lt;/b&gt;" style="text;html=1;align=center;verticalAlign=middle;whiteSpace=wrap;rounded=0;" vertex="1" parent="1">
          <mxGeometry x="350" y="90" width="60" height="30" as="geometry" />
        </mxCell>
        <mxCell id="Y-FW6RMtg8AMJjoA9081-15" value="reqports[i][j]" style="text;html=1;align=center;verticalAlign=middle;resizable=0;points=[];autosize=1;strokeColor=none;fillColor=none;" vertex="1" parent="1">
          <mxGeometry x="150" y="125" width="90" height="30" as="geometry" />
        </mxCell>
        <mxCell id="Y-FW6RMtg8AMJjoA9081-16" value="i" style="text;html=1;align=center;verticalAlign=middle;resizable=0;points=[];autosize=1;strokeColor=none;fillColor=none;" vertex="1" parent="1">
          <mxGeometry x="340" y="125" width="30" height="30" as="geometry" />
        </mxCell>
        <mxCell id="Y-FW6RMtg8AMJjoA9081-17" value="j&#39;" style="text;html=1;align=center;verticalAlign=middle;resizable=0;points=[];autosize=1;strokeColor=none;fillColor=none;" vertex="1" parent="1">
          <mxGeometry x="210" y="155" width="30" height="30" as="geometry" />
        </mxCell>
        <mxCell id="Y-FW6RMtg8AMJjoA9081-19" value="ACK" style="text;html=1;align=center;verticalAlign=middle;resizable=0;points=[];autosize=1;strokeColor=none;fillColor=none;" vertex="1" parent="1">
          <mxGeometry x="265" y="148" width="50" height="30" as="geometry" />
        </mxCell>
        <mxCell id="Y-FW6RMtg8AMJjoA9081-20" value="消息" style="text;html=1;align=center;verticalAlign=middle;resizable=0;points=[];autosize=1;strokeColor=none;fillColor=none;" vertex="1" parent="1">
          <mxGeometry x="265" y="118" width="50" height="30" as="geometry" />
        </mxCell>
        <mxCell id="Y-FW6RMtg8AMJjoA9081-21" value="j" style="text;html=1;align=center;verticalAlign=middle;resizable=0;points=[];autosize=1;strokeColor=none;fillColor=none;" vertex="1" parent="1">
          <mxGeometry x="210" y="185" width="30" height="30" as="geometry" />
        </mxCell>
        <mxCell id="Y-FW6RMtg8AMJjoA9081-23" value="消息" style="text;html=1;align=center;verticalAlign=middle;resizable=0;points=[];autosize=1;strokeColor=none;fillColor=none;" vertex="1" parent="1">
          <mxGeometry x="265" y="178" width="50" height="30" as="geometry" />
        </mxCell>
        <mxCell id="Y-FW6RMtg8AMJjoA9081-25" value="ACK" style="text;html=1;align=center;verticalAlign=middle;resizable=0;points=[];autosize=1;strokeColor=none;fillColor=none;" vertex="1" parent="1">
          <mxGeometry x="265" y="208" width="50" height="30" as="geometry" />
        </mxCell>
        <mxCell id="Y-FW6RMtg8AMJjoA9081-27" value="repports[j][i]" style="text;html=1;align=center;verticalAlign=middle;resizable=0;points=[];autosize=1;strokeColor=none;fillColor=none;" vertex="1" parent="1">
          <mxGeometry x="338" y="155" width="90" height="30" as="geometry" />
        </mxCell>
        <mxCell id="Y-FW6RMtg8AMJjoA9081-28" value="reqports[j][i]" style="text;html=1;align=center;verticalAlign=middle;resizable=0;points=[];autosize=1;strokeColor=none;fillColor=none;" vertex="1" parent="1">
          <mxGeometry x="338" y="184" width="90" height="30" as="geometry" />
        </mxCell>
        <mxCell id="Y-FW6RMtg8AMJjoA9081-29" value="i&#39;" style="text;html=1;align=center;verticalAlign=middle;resizable=0;points=[];autosize=1;strokeColor=none;fillColor=none;" vertex="1" parent="1">
          <mxGeometry x="341" y="214" width="30" height="30" as="geometry" />
        </mxCell>
        <mxCell id="Y-FW6RMtg8AMJjoA9081-30" value="repports[i][j]" style="text;html=1;align=center;verticalAlign=middle;resizable=0;points=[];autosize=1;strokeColor=none;fillColor=none;" vertex="1" parent="1">
          <mxGeometry x="150" y="213" width="90" height="30" as="geometry" />
        </mxCell>
      </root>
    </mxGraphModel>
  </diagram>
</mxfile>
